<svg width="58" height="54" viewBox="0 0 58 54" fill="none" xmlns="http://www.w3.org/2000/svg">
<mask id="mask0_1716_1896" style="mask-type:alpha" maskUnits="userSpaceOnUse" x="0" y="0" width="58" height="54">
<rect width="57.6337" height="54" fill="#D9D9D9"/>
</mask>
<g mask="url(#mask0_1716_1896)">
<path d="M28.9262 75.6843C57.7288 75.6843 81.0777 54.0513 81.0777 27.3656C81.0777 0.679856 57.7288 -20.9531 28.9262 -20.9531C0.123673 -20.9531 -23.2253 0.679856 -23.2253 27.3656C-23.2253 54.0513 0.123673 75.6843 28.9262 75.6843Z" fill="url(#paint0_linear_1716_1896)"/>
<path d="M16.5287 23.0245H21.672V38.6856H16.5287V23.0245ZM19.0376 15.3125C20.6684 15.3125 22.0483 16.6176 22.0483 18.16C22.0483 19.7024 20.6684 21.0075 19.0376 21.0075C17.4068 21.0075 16.0269 19.7024 16.0269 18.16C16.1523 16.6176 17.4068 15.3125 19.0376 15.3125Z" fill="white"/>
<path d="M24.6319 22.9285H29.8737V25.0778H30.0081C30.6802 23.8837 32.5619 22.5703 35.25 22.5703C40.7607 22.5703 41.836 25.7942 41.836 30.0927V38.6897H36.3253V31.0479C36.3253 29.2569 36.3253 26.8688 33.5027 26.8688C30.6802 26.8688 30.1426 28.8987 30.1426 30.9285V38.6897H24.6319V22.9285Z" fill="white"/>
</g>
<defs>
<linearGradient id="paint0_linear_1716_1896" x1="-7.93023" y1="-6.78661" x2="60.2943" y2="66.8497" gradientUnits="userSpaceOnUse">
<stop stop-color="#007BB8"/>
<stop offset="1" stop-color="#0044E9"/>
</linearGradient>
</defs>
</svg>
